<svg version="1.1" id="Layer_1" xmlns="http://www.w3.org/2000/svg" x="0px" y="0px" viewBox="0 0 368 66.7" perserveAspectRatio="xMinYMid" xml:space="preserve">
<g>
	<path d="M124.6,23.9h-4.9v11.2c0,2.5-0.9,3.4-3.3,3.4h-4.8c-2.4,0-3.3-0.9-3.3-3.4V23.9h-4.9c-0.6,0-1.1,0.5-1.1,1.1v11.4   c0,4.8,2.5,7.1,8,7.1l7.4,0c5.5,0,7.9-2.3,7.9-7.1V25C125.7,24.4,125.2,23.9,124.6,23.9"/>
	<path d="M363,17.3c0-0.8-0.5-1.2-1.5-1.2H360v4h0.7v-1.7h0.6l1,1.7h0.7l-1.1-1.8C362.5,18.4,363,18.1,363,17.3 M360.7,17.9v-1.2   h0.8c0.4,0,0.9,0.1,0.9,0.5c0,0.6-0.4,0.6-0.9,0.6H360.7z"/>
	<path d="M149.9,23.9h-20.5c-0.6,0-1.1,0.5-1.1,1.1v3.6h8.4v13.6c0,0.6,0.5,1.1,1.1,1.1h4.8V28.6h8.4V25   C151,24.4,150.5,23.9,149.9,23.9"/>
	<path d="M177,36.4V25c0-0.6-0.5-1.1-1.1-1.1H171v11.2c0,2.5-0.9,3.4-3.3,3.4h-4.8c-2.4,0-3.3-0.9-3.3-3.4V23.9h-4.9   c-0.6,0-1.1,0.5-1.1,1.1v11.4c0,4.8,2.5,7.1,8,7.1l7.4,0C174.5,43.5,177,41.2,177,36.4"/>
	<path d="M209.2,35.7l24.7,0c0.2,0,0.4-0.2,0.4-0.4v-3.9c0-0.2-0.2-0.4-0.4-0.4h-24.7c-0.2,0-0.4,0.2-0.4,0.4v3.9   C208.8,35.5,209,35.7,209.2,35.7"/>
	<path d="M209.2,28.4H234c0.2,0,0.4-0.2,0.4-0.4v-3.9c0-0.2-0.2-0.4-0.4-0.4h-24.7c-0.2,0-0.4,0.2-0.4,0.4V28   C208.8,28.2,209,28.4,209.2,28.4"/>
	<path d="M361.4,14.5c-1.9,0-3.6,1.4-3.6,3.6c0,2.1,1.5,3.6,3.6,3.6c1.9,0,3.5-1.4,3.5-3.6C364.9,16,363.3,14.5,361.4,14.5    M361.4,21.1c-1.7,0-2.8-1.3-2.8-3c0-1.8,1.2-3,2.8-3c1.5,0,2.7,1.2,2.7,3C364.1,19.9,362.9,21.1,361.4,21.1"/>
	<path d="M78.5,25v16v1.2c0,0.6,0.5,1.1,1.1,1.1h4.9v-6.6h13.6v-4.5H84.4v-3.6h14.3v-4.7H79.6C79,23.9,78.5,24.4,78.5,25"/>
	<path d="M269,43.3c0.6,0,1.1-0.5,1.1-1.1V25c0-0.6-0.5-1.1-1.1-1.1h-8l-6.7,12.5l-6.7-12.5h-8c-0.6,0-1.1,0.5-1.1,1.1v17.2   c0,0.6,0.5,1.1,1.1,1.1h4.7V29.4l7.9,13.9h4.4l7.8-13.9v13.9H269z"/>
	<path d="M321.3,23.9h-16.9c-0.6,0-1.1,0.5-1.1,1.1v17.2c0,0.6,0.5,1.1,1.1,1.1h4.9v-5h9.4c1.9,0,2.4,0.7,2.4,2.7l0,1.2   c0,0.6,0.5,1.1,1.1,1.1h4.9v-3.4c0-3.1-1.5-3.9-3.3-4.3c2.7-0.6,3.3-2.2,3.3-4.8v-1.2C327.1,26.2,325.9,23.9,321.3,23.9    M321.3,31.4c0,1.4-0.6,2-2.2,2h-9.8v-4.7h9.3c1.9,0,2.7,0.3,2.7,2V31.4z"/>
	<path d="M234,38.5h-24.8c-0.2,0-0.4,0.2-0.4,0.4v4c0,0.2,0.2,0.4,0.4,0.4H234c0.2,0,0.4-0.2,0.4-0.4v-4   C234.4,38.7,234.2,38.5,234,38.5"/>
	<path d="M355.2,23.9h-8.1l-7.5,7.1h-2.8v-7.1H332c-0.6,0-1.1,0.5-1.1,1.1v1.2v16.1c0,0.6,0.5,1.1,1.1,1.1h4.9v-7.4h2.6l8.6,7.4h8.4   l-11.7-9.9L355.2,23.9z"/>
	<path d="M199,23.9h-16.9c-0.6,0-1.1,0.5-1.1,1.1v17.2c0,0.6,0.5,1.1,1.1,1.1h4.9v-5h9.4c1.8,0,2.4,0.7,2.4,2.7l0,1.2   c0,0.6,0.5,1.1,1.1,1.1h4.9v-3.4c0-3.1-1.5-3.9-3.3-4.3c2.7-0.6,3.3-2.2,3.3-4.8v-1.2C204.8,26.2,203.6,23.9,199,23.9 M199,31.4   c0,1.4-0.6,2-2.2,2H187v-4.7h9.3c1.9,0,2.7,0.3,2.7,2V31.4z"/>
	<path d="M282.8,23.9l-10.5,19.4h6.6l1.7-3.4h12.1l1.9,3.4h6.6l-10.7-19.4H282.8z M282.9,35.7l3.8-7.3l3.9,7.3H282.9z"/>
	<path fill="#FD7D16" d="M50.6,40.2H18.7c-0.2,0-0.4,0.2-0.4,0.4V46c0,0.2,0.2,0.4,0.4,0.4h31.9c0.2,0,0.4-0.2,0.4-0.4v-5.3   C51,40.4,50.8,40.2,50.6,40.2"/>
	<path fill="#FD7D16" d="M50.6,30.4H18.7c-0.2,0-0.4,0.2-0.4,0.4v5.3c0,0.2,0.2,0.4,0.4,0.4h31.9c0.2,0,0.4-0.2,0.4-0.4v-5.3   C51,30.6,50.8,30.4,50.6,30.4"/>
	<path fill="#FD7D16" d="M50.6,21.1H18.7c-0.2,0-0.4,0.2-0.4,0.4v5.3c0,0.2,0.2,0.4,0.4,0.4h31.9c0.2,0,0.4-0.2,0.4-0.4v-5.3   C51,21.3,50.8,21.1,50.6,21.1"/>
	<path fill="#FD7D16" d="M34.6,4C18.2,4,4.9,17.4,4.9,33.8c0,1.9,0.2,3.7,0.5,5.5c0.1,0.4,0.2,0.9,0.3,1.4   c3.1,13.1,14.9,22.8,28.9,22.8c13.8,0,25.4-9.4,28.8-22.1c0.3-1.2,0.6-2.5,0.5-2.3c0,0,0,0,0,0c0.3-1.7,0.5-3.5,0.5-5.4   C64.4,17.4,51,4,34.6,4 M59.4,38.7c-0.1,0.6-0.3,1.3-0.5,1.9c-3,10.6-12.8,18.4-24.3,18.4c-11.6,0-21.4-7.9-24.4-18.6   c-0.1-0.4-0.2-0.8-0.3-1.2c-0.4-1.8-0.6-3.6-0.6-5.5c0-14,11.4-25.3,25.3-25.3c13.9,0,25.3,11.3,25.3,25.3   C59.9,35.5,59.7,37.1,59.4,38.7"/>
</g>
</svg>