<?xml version="1.0" encoding="UTF-8" standalone="no"?>
<svg
   xmlns:dc="http://purl.org/dc/elements/1.1/"
   xmlns:cc="http://creativecommons.org/ns#"
   xmlns:rdf="http://www.w3.org/1999/02/22-rdf-syntax-ns#"
   xmlns:svg="http://www.w3.org/2000/svg"
   xmlns="http://www.w3.org/2000/svg"
   viewBox="0 0 415.74268 137.836"
   height="137.836"
   width="415.74268"
   xml:space="preserve"
   id="svg2"
   version="1.1"><metadata
     id="metadata8"><rdf:RDF><cc:Work
         rdf:about=""><dc:format>image/svg+xml</dc:format><dc:type
           rdf:resource="http://purl.org/dc/dcmitype/StillImage" /></cc:Work></rdf:RDF></metadata><defs
     id="defs6"><clipPath
       id="clipPath18"
       clipPathUnits="userSpaceOnUse"><path
         id="path16"
         d="M 0,103.377 H 311.807 V 0 H 0 Z" /></clipPath><clipPath
       id="clipPath54"
       clipPathUnits="userSpaceOnUse"><path
         id="path52"
         d="m 228.712,41.166 h 46.594 v 6.593 h -46.594 z" /></clipPath><clipPath
       id="clipPath62"
       clipPathUnits="userSpaceOnUse"><path
         id="path60"
         d="M -32768,32767 H 32767 V -32768 H -32768 Z" /></clipPath><linearGradient
       id="linearGradient74"
       spreadMethod="pad"
       gradientTransform="matrix(46.5937,0,0,-46.5937,228.71289,44.462898)"
       gradientUnits="userSpaceOnUse"
       y2="0"
       x2="1"
       y1="0"
       x1="0"><stop
         id="stop64"
         offset="0"
         style="stop-opacity:1;stop-color:#ffffff" /><stop
         id="stop66"
         offset="0.466667"
         style="stop-opacity:1;stop-color:#ffffff" /><stop
         id="stop68"
         offset="0.6609694"
         style="stop-opacity:1;stop-color:#ffffff" /><stop
         id="stop70"
         offset="0.98"
         style="stop-opacity:0;stop-color:#ffffff" /><stop
         id="stop72"
         offset="1"
         style="stop-opacity:0;stop-color:#ffffff" /></linearGradient><mask
       id="mask76"
       height="1"
       width="1"
       y="0"
       x="0"
       maskUnits="userSpaceOnUse"><g
         id="g86"><g
           id="g84"
           clip-path="url(#clipPath62)"><g
             id="g82"><g
               id="g80"><path
                 id="path78"
                 style="fill:url(#linearGradient74);stroke:none"
                 d="M -32768,32767 H 32767 V -32768 H -32768 Z" /></g></g></g></g></mask><linearGradient
       id="linearGradient102"
       spreadMethod="pad"
       gradientTransform="matrix(46.5937,0,0,-46.5937,228.71289,44.462898)"
       gradientUnits="userSpaceOnUse"
       y2="0"
       x2="1"
       y1="0"
       x1="0"><stop
         id="stop92"
         offset="0"
         style="stop-opacity:1;stop-color:#ffffff" /><stop
         id="stop94"
         offset="0.466667"
         style="stop-opacity:1;stop-color:#ffffff" /><stop
         id="stop96"
         offset="0.6609694"
         style="stop-opacity:1;stop-color:#ffffff" /><stop
         id="stop98"
         offset="0.98"
         style="stop-opacity:1;stop-color:#ffffff" /><stop
         id="stop100"
         offset="1"
         style="stop-opacity:1;stop-color:#ffffff" /></linearGradient></defs><g
     transform="matrix(1.3333333,0,0,-1.3333333,0,137.836)"
     id="g10"><g
       id="g12"><g
         clip-path="url(#clipPath18)"
         id="g14"><g
           transform="translate(293.9736,22.0586)"
           id="g20"><path
             id="path22"
             style="fill:#c92000;fill-opacity:1;fill-rule:nonzero;stroke:none"
             d="m 0,0 c 0,-2.338 -1.914,-4.252 -4.252,-4.252 h -267.663 c -2.338,0 -4.252,1.914 -4.252,4.252 v 59.497 c 0,2.338 1.914,4.252 4.252,4.252 H -4.252 C -1.914,63.749 0,61.835 0,59.497 Z" /></g><g
           transform="translate(61.9873,62.1495)"
           id="g24"><path
             id="path26"
             style="fill:#ffffff;fill-opacity:1;fill-rule:nonzero;stroke:none"
             d="M 0,0 H -10.101 V 6.9 H 17.901 V 0 H 7.8 V -28.502 H 0 Z" /></g><g
           transform="translate(113.6885,47.2984)"
           id="g28"><path
             id="path30"
             style="fill:#ffffff;fill-opacity:1;fill-rule:nonzero;stroke:none"
             d="m 0,0 c 0,-8.351 -5.101,-14.551 -14.901,-14.551 -9.85,0 -14.951,6.2 -14.951,14.551 v 21.751 h 7.801 V 0.3 c 0,-4.35 3,-7.651 7.15,-7.651 4.1,0 7.1,3.301 7.1,7.651 V 21.751 H 0 Z" /></g><g
           transform="translate(129.687,52.1485)"
           id="g32"><path
             id="path34"
             style="fill:#ffffff;fill-opacity:1;fill-rule:nonzero;stroke:none"
             d="M 0,0 -11.701,16.901 H -1.9 L 5.65,4.5 12.901,16.901 h 9.45 L 10.9,0.15 23.701,-18.501 h -9.8 L 5.25,-4.25 -3.15,-18.501 h -9.251 z" /></g><g
           transform="translate(157.2856,69.0499)"
           id="g36"><path
             id="path38"
             style="fill:#ffffff;fill-opacity:1;fill-rule:nonzero;stroke:none"
             d="M 0,0 H 24.051 V -7.201 H 7.8 v -6.6 h 15.351 v -7.2 H 7.8 v -7.201 h 17.151 v -7.2 H 0 Z" /></g><g
           transform="translate(196.2856,54.399)"
           id="g40"><path
             id="path42"
             style="fill:#ffffff;fill-opacity:1;fill-rule:nonzero;stroke:none"
             d="m 0,0 h 4.601 c 2.849,0 6.549,0.1 6.549,3.95 0,3.55 -3.2,4.1 -6.049,4.1 H 0 Z M -7.801,14.651 H 5.9 c 7.25,0 13.351,-2.501 13.351,-10.751 0,-4.95 -2.65,-8.8 -7.65,-9.701 l 9,-14.95 h -9.35 L 3.85,-6.601 H 0 v -14.15 h -7.801 z" /></g><g
           transform="translate(235.5356,58.7491)"
           id="g44"><path
             id="path46"
             style="fill:#ffffff;fill-opacity:1;fill-rule:nonzero;stroke:none"
             d="m 0,0 -4.3,-11 h 8.651 z m -3,10.301 h 6.45 l 15.402,-35.403 h -8.801 l -3.05,7.501 H -6.75 l -2.95,-7.501 h -8.601 z" /></g></g></g><g
       id="g48"><g
         clip-path="url(#clipPath54)"
         id="g50"><g
           id="g56"><g
             id="g58" /><g
             mask="url(#mask76)"
             id="g88"><g
               id="g90"><path
                 id="path104"
                 style="fill:url(#linearGradient102);stroke:none"
                 d="m 228.712,41.166 h 46.594 v 6.593 h -46.594 z" /></g></g></g></g></g></g></svg>